# xmcd
#
# Track frame offsets: 
#        150
#        14683
#        27705
#        41204
#        53910
#        67416
#        78914
#        93432
#        107989
#        122589
#        136322
#        149971
#        163840
#        176720
#        188727
#        200195
#        213488
#        226254
#        240800
#        254339
#        268442
#        281031
#
# Disc length: 3901 seconds
#
# Revision: 0
# Processed by: cddbd v1.5.2PL0 Copyright (c) Steve Scherf et al.
# Submitted via: ExactAudioCopy v0.99pb4
#
DISCID=640f3b16
DTITLE=Blues - In a Blue Hour 2
DYEAR=2006
DGENRE=Blues
TTITLE0=Eddie Jefferson - Workshop
TTITLE1=Cripple Clarence Lofton - Strut that thing
TTITLE2=Jimmy and Walter - Easy
TTITLE3=JB Lenoir - The mountain
TTITLE4=Mary Deloach - The lord's gospel train
TTITLE5=Marion Abernathy - Honey honey honey
TTITLE6=Blind Wille Johnson - Jesus is coming soon
TTITLE7=Billie Holiday - Gloomy sunday
TTITLE8=Ray Charles - Losing hand
TTITLE9=Johnny Otis - Harlem nocturne
TTITLE10=Muddy Waters - Rollin And Tumblin
TTITLE11=Robert Johnson - Sweet home Chicago
TTITLE12=Big Mama Thornton - Hound Dog
TTITLE13=Dinah Washington - New blowtop blues
TTITLE14=Lavern Baker - Make it good
TTITLE15=Howlin Wolf - Moaning at midnight
TTITLE16=Little Esther - Bring my lovib back to me
TTITLE17=Lowell Fulson - Reconsider baby
TTITLE18=Lil Green - Why don't you do right
TTITLE19=Blind Willie McTell - Dying crapshooter s blues
TTITLE20=Billy Boy Arnold - I wish you would
TTITLE21=Dinah Washington - Fine, fine daddy
EXTD=
EXTT0=
EXTT1=
EXTT2=
EXTT3=
EXTT4=
EXTT5=
EXTT6=
EXTT7=
EXTT8=
EXTT9=
EXTT10=
EXTT11=
EXTT12=
EXTT13=
EXTT14=
EXTT15=
EXTT16=
EXTT17=
EXTT18=
EXTT19=
EXTT20=
EXTT21=
PLAYORDER=
